<svg xmlns="http://www.w3.org/2000/svg" width="860" height="390" viewBox="0 0 860 390">
<rect width="860" height="390" fill="white"/>
<text x="28" y="25" font-family="sans-serif" font-size="17" font-weight="bold">Exact product-state reduction</text>
<line x1="78" y1="164.73" x2="728" y2="164.73" stroke="#dc2626" stroke-dasharray="5 4"/>
<text x="69" y="168.73" text-anchor="end" font-family="sans-serif" font-size="11">1.0x</text>
<line x1="78" y1="296" x2="728" y2="296" stroke="#111827"/>
<line x1="78" y1="46" x2="78" y2="296" stroke="#111827"/>
<rect x="100.75" y="78.65" width="62.83" height="217.35" fill="#2563eb"/><text x="132.17" y="318" text-anchor="middle" font-size="12">P1</text><rect x="209.08" y="77.04" width="62.83" height="218.96" fill="#2563eb"/><text x="240.50" y="318" text-anchor="middle" font-size="12">P2</text><rect x="317.42" y="80.90" width="62.83" height="215.10" fill="#2563eb"/><text x="348.83" y="318" text-anchor="middle" font-size="12">P3</text><rect x="425.75" y="72.79" width="62.83" height="223.21" fill="#2563eb"/><text x="457.17" y="318" text-anchor="middle" font-size="12">P4</text><rect x="534.08" y="75.68" width="62.83" height="220.32" fill="#2563eb"/><text x="565.50" y="318" text-anchor="middle" font-size="12">P5</text><rect x="642.42" y="83.53" width="62.83" height="212.47" fill="#2563eb"/><text x="673.83" y="318" text-anchor="middle" font-size="12">P6</text>
<line x1="756" y1="82.10" x2="756" y2="74.09" stroke="#111827" stroke-width="3"/>
<line x1="748" y1="82.10" x2="764" y2="82.10" stroke="#111827" stroke-width="3"/>
<line x1="748" y1="74.09" x2="764" y2="74.09" stroke="#111827" stroke-width="3"/>
<circle cx="756" cy="78.10" r="6" fill="#f59e0b"/>
<text x="772" y="82.10" font-family="sans-serif" font-size="12">mean 1.660x</text>
<text x="28" y="348" font-family="sans-serif" font-size="12">95% Student-t CI [1.629x, 1.691x]; 6/6 pairs won; 12/12 cells passed.</text>
<text x="28" y="369" font-family="monospace" font-size="10">raw report sha256:6a4dbfbbb1eaf4cba63036f26cbe9e402cd28cf7acc55381c868077a0b105fcc</text>
</svg>
